<?xml version="1.0" encoding="UTF-8"?>
<svg xmlns="http://www.w3.org/2000/svg" xmlns:xlink="http://www.w3.org/1999/xlink" width="59px" height="59px" viewBox="0 0 59 59" version="1.1">
<g id="surface1">
<path style=" stroke:none;fill-rule:evenodd;fill:rgb(99.607843%,81.568629%,0%);fill-opacity:1;" d="M -0.0507812 -0.0507812 C 19.617188 -0.0507812 39.285156 -0.0507812 58.949219 -0.0507812 C 58.949219 19.617188 58.949219 39.285156 58.949219 58.949219 C 39.285156 58.949219 19.617188 58.949219 -0.0507812 58.949219 C -0.0507812 39.285156 -0.0507812 19.617188 -0.0507812 -0.0507812 Z M -0.0507812 -0.0507812 "/>
<path style=" stroke:none;fill-rule:evenodd;fill:rgb(0.392157%,0.392157%,0%);fill-opacity:1;" d="M 6.9375 16.523438 C 7.96875 16.523438 9 16.523438 10.03125 16.523438 C 10.140625 17.21875 10.242188 17.917969 10.332031 18.617188 C 13.660156 18.617188 16.988281 18.617188 20.316406 18.617188 C 20.402344 17.921875 20.46875 17.222656 20.515625 16.523438 C 21.582031 16.523438 22.644531 16.523438 23.710938 16.523438 C 23.589844 17.214844 23.523438 17.914062 23.511719 18.617188 C 24.972656 18.617188 26.4375 18.617188 27.902344 18.617188 C 27.902344 19.449219 27.902344 20.28125 27.902344 21.113281 C 24.207031 21.113281 20.515625 21.113281 16.820312 21.113281 C 16.820312 21.78125 16.820312 22.445312 16.820312 23.109375 C 20.28125 23.109375 23.742188 23.109375 27.203125 23.109375 C 27.203125 23.910156 27.203125 24.707031 27.203125 25.507812 C 23.742188 25.507812 20.28125 25.507812 16.820312 25.507812 C 16.820312 26.140625 16.820312 26.769531 16.820312 27.402344 C 20.28125 27.402344 23.742188 27.402344 27.203125 27.402344 C 27.203125 28.234375 27.203125 29.066406 27.203125 29.898438 C 23.742188 29.898438 20.28125 29.898438 16.820312 29.898438 C 16.820312 30.664062 16.820312 31.429688 16.820312 32.195312 C 20.515625 32.195312 24.207031 32.195312 27.902344 32.195312 C 27.902344 33.027344 27.902344 33.859375 27.902344 34.691406 C 24.476562 34.675781 21.046875 34.691406 17.621094 34.742188 C 19.472656 36.734375 21.734375 38.0625 24.410156 38.734375 C 25.695312 39.070312 26.992188 39.320312 28.300781 39.484375 C 27.816406 40.339844 27.316406 41.1875 26.804688 42.027344 C 23.015625 41.648438 19.652344 40.25 16.722656 37.835938 C 16.203125 37.351562 15.71875 36.835938 15.273438 36.289062 C 13.890625 38.054688 12.175781 39.402344 10.132812 40.332031 C 7.632812 41.378906 5.035156 41.964844 2.347656 42.078125 C 2.625 41.171875 2.925781 40.273438 3.246094 39.382812 C 6.136719 39.1875 8.765625 38.269531 11.132812 36.636719 C 11.828125 36.070312 12.460938 35.441406 13.027344 34.742188 C 9.601562 34.691406 6.171875 34.675781 2.746094 34.691406 C 2.746094 33.859375 2.746094 33.027344 2.746094 32.195312 C 6.40625 32.195312 10.066406 32.195312 13.726562 32.195312 C 13.726562 31.429688 13.726562 30.664062 13.726562 29.898438 C 10.265625 29.898438 6.804688 29.898438 3.34375 29.898438 C 3.34375 29.066406 3.34375 28.234375 3.34375 27.402344 C 6.804688 27.402344 10.265625 27.402344 13.726562 27.402344 C 13.726562 26.769531 13.726562 26.140625 13.726562 25.507812 C 10.265625 25.507812 6.804688 25.507812 3.34375 25.507812 C 3.34375 24.707031 3.34375 23.910156 3.34375 23.109375 C 6.804688 23.109375 10.265625 23.109375 13.726562 23.109375 C 13.726562 22.445312 13.726562 21.78125 13.726562 21.113281 C 10.066406 21.113281 6.40625 21.113281 2.746094 21.113281 C 2.746094 20.28125 2.746094 19.449219 2.746094 18.617188 C 4.210938 18.617188 5.671875 18.617188 7.136719 18.617188 C 7.125 17.914062 7.058594 17.214844 6.9375 16.523438 Z M 6.9375 16.523438 "/>
<path style=" stroke:none;fill-rule:evenodd;fill:rgb(0.784314%,0.784314%,0%);fill-opacity:1;" d="M 31.496094 17.019531 C 39.25 17.003906 47.003906 17.019531 54.757812 17.070312 C 55.152344 17.167969 55.46875 17.382812 55.707031 17.71875 C 55.855469 25.765625 55.90625 33.820312 55.855469 41.878906 C 48.070312 41.894531 40.28125 41.878906 32.496094 41.828125 C 32.046875 41.644531 31.730469 41.328125 31.546875 40.878906 C 31.496094 32.925781 31.480469 24.972656 31.496094 17.019531 Z M 31.496094 17.019531 "/>
<path style=" stroke:none;fill-rule:evenodd;fill:rgb(98.823529%,81.176472%,0%);fill-opacity:1;" d="M 34.492188 19.617188 C 40.613281 19.617188 46.738281 19.617188 52.859375 19.617188 C 52.859375 26.207031 52.859375 32.792969 52.859375 39.382812 C 46.738281 39.382812 40.613281 39.382812 34.492188 39.382812 C 34.492188 32.792969 34.492188 26.207031 34.492188 19.617188 Z M 34.492188 19.617188 "/>
<path style=" stroke:none;fill-rule:evenodd;fill:rgb(0.392157%,0.392157%,0%);fill-opacity:1;" d="M 45.871094 21.015625 C 46.835938 21.015625 47.800781 21.015625 48.765625 21.015625 C 48.734375 21.730469 48.769531 22.429688 48.867188 23.109375 C 49.765625 23.109375 50.664062 23.109375 51.5625 23.109375 C 51.5625 23.910156 51.5625 24.707031 51.5625 25.507812 C 50.664062 25.507812 49.765625 25.507812 48.867188 25.507812 C 48.882812 28.136719 48.867188 30.765625 48.816406 33.394531 C 48.695312 34.953125 48.410156 36.484375 47.96875 37.984375 C 46.902344 38.019531 45.835938 37.984375 44.773438 37.886719 C 45.328125 36.675781 45.679688 35.414062 45.824219 34.09375 C 45.871094 31.230469 45.890625 28.367188 45.871094 25.507812 C 44.972656 25.507812 44.074219 25.507812 43.175781 25.507812 C 42.800781 29.925781 41.535156 34.066406 39.382812 37.9375 C 38.285156 38.003906 37.1875 38.003906 36.089844 37.9375 C 37.222656 36.285156 38.101562 34.507812 38.734375 32.59375 C 39.546875 30.300781 40.0625 27.9375 40.28125 25.507812 C 38.851562 25.507812 37.417969 25.507812 35.988281 25.507812 C 35.988281 24.707031 35.988281 23.910156 35.988281 23.109375 C 39.285156 23.109375 42.578125 23.109375 45.871094 23.109375 C 45.871094 22.410156 45.871094 21.714844 45.871094 21.015625 Z M 45.871094 21.015625 "/>
<path style=" stroke:none;fill-rule:evenodd;fill:rgb(24.705882%,20.392157%,0%);fill-opacity:1;" d="M 45.871094 21.015625 C 46.851562 20.914062 47.851562 20.882812 48.867188 20.914062 C 48.867188 21.648438 48.867188 22.378906 48.867188 23.109375 C 48.769531 22.429688 48.734375 21.730469 48.765625 21.015625 C 47.800781 21.015625 46.835938 21.015625 45.871094 21.015625 Z M 45.871094 21.015625 "/>
</g>
</svg>
